<mxfile host="app.diagrams.net" modified="2024-04-07T09:56:20.043Z" agent="Mozilla/5.0 (X11; Ubuntu; Linux x86_64; rv:124.0) Gecko/20100101 Firefox/124.0" version="24.2.2" etag="SHjxs_1kfh7WUpzxgBxc" type="github">
  <diagram name="Page-1" id="lEQxsnUgB_HwzbzumoA8">
    <mxGraphModel>
      <root>
        <mxCell id="0" />
        <mxCell id="1" parent="0" />
      </root>
    </mxGraphModel>
  </diagram>
</mxfile>
